<?xml version="1.0" standalone="no"?>
<!DOCTYPE svg PUBLIC "-//W3C//DTD SVG 20010904//EN"
 "http://www.w3.org/TR/2001/REC-SVG-20010904/DTD/svg10.dtd">
<svg version="1.0" xmlns="http://www.w3.org/2000/svg"
 width="349.000000pt" height="193.000000pt" viewBox="0 0 349.000000 193.000000"
 preserveAspectRatio="xMidYMid meet">

<g transform="translate(0.000000,193.000000) scale(0.100000,-0.100000)"
fill="#000000" stroke="none">
<path d="M917 1663 c-4 -3 -7 -111 -7 -239 0 -220 -1 -234 -19 -244 -29 -15
-222 -12 -243 4 -15 11 -18 29 -18 109 0 122 6 127 132 127 l88 0 0 35 0 35
-87 0 c-110 0 -155 -12 -187 -51 -24 -29 -26 -37 -26 -140 0 -96 3 -113 23
-144 32 -50 78 -65 197 -65 114 0 169 17 200 60 19 26 20 45 20 274 l0 246
-33 0 c-19 0 -37 -3 -40 -7z"/>
<path d="M1120 1635 c0 -33 2 -35 35 -35 33 0 35 2 35 35 0 33 -2 35 -35 35
-33 0 -35 -2 -35 -35z"/>
<path d="M1120 1290 l0 -200 34 0 c19 0 36 4 38 10 2 5 2 95 0 200 l-3 190
-34 0 -35 0 0 -200z"/>
<path d="M1320 1302 c0 -133 4 -192 12 -200 17 -17 53 -15 90 4 19 10 28 11
23 3 -5 -7 -4 -10 1 -7 5 3 34 17 64 31 104 48 190 147 248 284 29 68 28 73
-13 73 -33 0 -36 -4 -65 -62 -48 -97 -54 -107 -112 -165 -53 -55 -76 -69 -135
-83 -24 -6 -33 -4 -37 7 -3 8 -6 80 -6 159 l0 144 -35 0 -35 0 0 -188z"/>
<path d="M1854 1475 c-3 -8 -4 -79 -2 -157 3 -124 6 -147 23 -170 30 -40 87
-58 188 -58 l87 0 0 40 0 40 -92 0 c-132 1 -128 -5 -128 174 l0 146 -35 0
c-22 0 -38 -6 -41 -15z"/>
<path d="M2220 1262 c0 -286 7 -272 -131 -272 l-99 0 0 -40 0 -40 94 0 c100 0
148 13 181 50 19 21 20 39 23 276 l3 254 -36 0 -35 0 0 -228z"/>
<path d="M2490 1455 l0 -35 114 0 c147 0 146 1 146 -130 0 -88 -2 -100 -19
-110 -11 -5 -69 -10 -130 -10 -119 0 -141 9 -141 54 0 40 22 48 125 47 l95 -1
0 40 0 40 -102 0 c-85 0 -108 -4 -132 -19 -38 -26 -55 -57 -56 -104 -1 -99 60
-136 218 -137 114 0 157 13 192 58 17 21 20 40 20 144 0 180 -20 198 -215 198
l-115 0 0 -35z"/>
<path d="M1570 526 c0 -309 -2 -296 56 -296 l24 0 0 290 0 290 -40 0 -40 0 0
-284z"/>
<path d="M343 611 c-22 -19 -23 -25 -23 -201 l0 -181 43 3 42 3 3 158 3 157
84 0 c114 0 115 -2 115 -181 l0 -136 38 1 37 1 1 155 1 155 60 3 c88 4 93 -5
93 -180 l0 -138 35 0 35 0 0 153 c0 173 -11 206 -75 233 -51 21 -164 19 -181
-3 -12 -17 -14 -17 -44 0 -47 26 -236 24 -267 -2z"/>
<path d="M1089 610 c-61 -32 -64 -40 -64 -181 0 -121 1 -129 24 -153 33 -35
108 -50 228 -44 109 5 131 13 164 60 18 25 24 49 27 115 6 106 -13 162 -66
198 -34 23 -45 25 -157 25 -98 -1 -127 -4 -156 -20z m285 -82 c11 -16 16 -46
16 -98 0 -116 -5 -120 -144 -120 -148 0 -149 1 -147 114 2 129 -1 126 141 126
112 0 120 -1 134 -22z"/>
<path d="M1720 590 l0 -40 93 0 c50 0 99 -5 107 -10 12 -7 16 -39 18 -160 l3
-151 37 3 37 3 0 155 c0 139 -2 158 -20 182 -32 43 -81 58 -183 58 l-92 0 0
-40z"/>
<path d="M2200 590 l0 -40 123 0 c82 0 127 -4 135 -12 8 -8 12 -47 12 -109 0
-126 -3 -129 -147 -129 -90 0 -106 3 -123 20 -24 24 -26 63 -4 81 10 8 52 15
110 17 l94 4 0 29 0 29 -110 0 c-108 0 -110 0 -145 -31 -32 -28 -35 -36 -35
-84 0 -43 5 -60 25 -84 38 -44 80 -54 215 -49 138 6 160 17 186 91 23 69 17
205 -12 243 -40 54 -68 62 -201 63 l-123 1 0 -40z"/>
<path d="M2666 611 c-14 -16 -16 -41 -14 -197 l3 -179 37 -3 37 -3 3 158 3
158 112 3 c105 2 113 1 140 -22 28 -24 28 -26 33 -158 l5 -133 43 -2 42 -3 0
120 c0 68 -4 121 -10 125 -5 3 -10 16 -10 27 0 31 -43 83 -90 107 -36 18 -57
21 -179 21 -122 0 -140 -2 -155 -19z"/>
</g>
</svg>
